<?xml version="1.0" encoding="utf-8"?>
<!-- Generator: Adobe Illustrator 23.1.0, SVG Export Plug-In . SVG Version: 6.00 Build 0)  -->
<svg version="1.1" id="Layer_1" xmlns="http://www.w3.org/2000/svg" xmlns:xlink="http://www.w3.org/1999/xlink" x="0px" y="0px"
	 viewBox="0 0 512 512" style="enable-background:new 0 0 512 512;" xml:space="preserve">
<style type="text/css">
	.st0{fill:#F5F5F5;}
</style>
<path class="st0" d="M495.6,49.2l-32.8-32.8C451.8,5.5,437.5,0,423.1,0c-14.3,0-28.7,5.5-39.6,16.4l-216,216.1
	c-8.4,7.5-12.7,17-15.1,27.3l-24.1,107.4c-1.8,8.9,5.1,16.8,12.8,16.8c0.9,0,1.9-0.1,2.8-0.3c0,0,74-15.7,107.4-23.6
	c10.1-2.4,19.1-7.5,26.5-14.8l217-217C517.5,106.5,517.4,71.1,495.6,49.2z M461.7,94.4l-217,217c-1.1,1.1-2.2,1.7-3.5,2
	c-13.7,3.2-34.7,7.9-54.3,12.1l12.4-55.2c0.3-1.4,1-2.8,2.1-3.8L417.5,50.4c1.9-2,4.1-2.4,5.6-2.4s3.7,0.4,5.6,2.3l32.8,32.8
	C464.8,86.3,464.8,91.3,461.7,94.4z M424,288c-13.3,0-24,10.8-24,24v128c0,13.2-10.8,24-24,24H72c-13.2,0-24-10.8-24-24V136
	c0-13.2,10.8-24,24-24h144c13.3,0,24-10.8,24-24s-10.7-24-24-24L71.1,64C32.3,64,0,96.3,0,135.1v304C0,479.7,32.3,512,71.1,512
	h303.1c39.7,0,71.1-32.3,71.1-72l2.7-128C448,298.8,437.3,288,424,288z"/>
</svg>
