<svg xmlns="http://www.w3.org/2000/svg" viewBox="0 0 512 512.05"><defs><style>.cls-1{fill:#f5f5f5;}</style></defs><title>Asset 1</title><g id="Layer_2" data-name="Layer 2"><g id="Layer_1-2" data-name="Layer 1"><path class="cls-1" d="M500.3,443.7,380.6,324c27.22-40.41,40.65-90.9,33.46-144.7C401.8,87.79,326.8,13.32,235.2,1.72A208.18,208.18,0,0,0,1.72,235.2c11.6,91.64,86.08,166.7,177.6,178.9,53.8,7.19,104.3-6.24,144.7-33.46l119.7,119.7A40,40,0,0,0,500.3,443.7ZM79.1,208a128,128,0,1,1,128,128A128.14,128.14,0,0,1,79.1,208Z"/></g></g></svg>